<?xml version="1.0" encoding="UTF-8"?>
<!DOCTYPE svg PUBLIC "-//W3C//DTD SVG 1.1//EN" "http://www.w3.org/Graphics/SVG/1.1/DTD/svg11.dtd">
<svg xmlns="http://www.w3.org/2000/svg" xmlns:xlink="http://www.w3.org/1999/xlink" fill="currentColor"
     viewBox="0 0 832 1024">
    <path d="M416 0Q303 0 207.5 59.5T56 222T0 445v547q0 10 6 18t15 12q5 2 11 2q15 0 24-10l121-134l94 131q10 13 26 13q8 0 14.5-3.5t11.5-9.5l94-127l94 127q9 13 25 13q5 0 10-1.5t9-4.5t7-7l96-130l118 132q6 8 16 10.5t19-1.5t15-12t6-18V445q0-171-108-299Q621 25 470 4q-27-4-54-4zm352 908l-89-99q-10-12-25-11q-7 0-13.5 3.5T630 811l-94 127l-93-127q-9-13-25-13t-26 13l-95 127l-92-127q-1-2-3.5-4t-4.5-3.5t-4.5-3t-5.5-2t-6-.5h-2q-14 0-23 10L64 909V445q0-103 47.5-191T240 115t176-51t176 51t128.5 139T768 445v463zM576 352q-17 0-32 8.5T520.5 384t-8.5 32q0 13 5 25t13.5 20.5T551 475t25 5q26 0 45-19t19-45q0-13-5-25t-13.5-20.5T601 357t-25-5zm-320 0q-26 0-45 19t-19 45t19 45t45 19t45-19t19-45q0-7-1.5-13t-4-12t-6-11t-7.5-9t-9-7.5t-11-6t-12-4t-13-1.5z"/>
</svg>
