<svg clip-rule="evenodd" fill-rule="evenodd" stroke-linejoin="round" stroke-miterlimit="2" viewBox="0 0 843 945" xmlns="http://www.w3.org/2000/svg"><path d="M288.006 167.837l259.221 1.172L744.808 6.037s44.386-22.821 55.451 20.277l41.943 727.257L420.77 944.092.013 753.797 34.036 28.851S50.205-4.273 88.927 9.164z" fill="#5c28c5"/><path d="M288.006 167.837l127.354 1.632 5.41 774.623L.013 753.797 34.036 28.851S45.417-10.636 88.927 9.164z" fill="#a16dea"/><path d="M418.132 444.83l2.62 499.272L0 753.842l181.393-409.357s19.729-31.326 52.397-16.763z" fill="#cfb4f4"/><path d="M418.301 446.262l2.474 497.818 421.323-190.56-186.377-407.676s-19.729-31.327-52.397-16.763z" fill="#8847e4"/><path d="M447.619 866.351c0-14.694-11.93-26.624-26.624-26.624s-26.624 11.93-26.624 26.624v48.092c0 14.694 11.93 26.624 26.624 26.624s26.624-11.93 26.624-26.624z" fill="#240664"/></svg>